<svg xmlns="http://www.w3.org/2000/svg" viewBox="0 0 432 103.28"><defs><style>.cls-1{fill:#1b74aa;}.cls-2{fill:#231f20;}</style></defs><g id="Layer_2" data-name="Layer 2"><path class="cls-1" d="M75.58,34.55a42.12,42.12,0,0,0-27.46-10.4,42.11,42.11,0,0,0-27.45,10.4,159.76,159.76,0,0,0-.69,18C22,75.73,48.12,82.1,48.12,82.1s26.1-6.37,28.15-29.53A159.76,159.76,0,0,0,75.58,34.55ZM29,56.44s2.45-.81,3.22-1.94c0,0,.1-.78-.87-.87,0,0-1.79.21.15-.76a17.49,17.49,0,0,0,4.34-3.06A50.72,50.72,0,0,0,23.62,54a5.87,5.87,0,0,1,1.63-2.45l-1.63.26s6.23-4,7.86-5.26a26.51,26.51,0,0,0,2.4-2s2.3,2,2.86,2-5.51,3.06-7,3.52c0,0,1.68.62,5.61-1.58s12.69-8.07,12.69-8.07l6,3.94s-1.43-.57-2.67-1a3.45,3.45,0,0,0-1.51-.58,7.23,7.23,0,0,1-2.13.08,2.66,2.66,0,0,0-2,.6c-.28.28-.46.67-.82.83a3.72,3.72,0,0,1-1.16.07,1.37,1.37,0,0,0-.51,2.56V46.3l0,.61v-.56a6,6,0,0,1,2,.34,2,2,0,0,1,1.25,1.46l.21-.64a1.9,1.9,0,0,1-.06,1.55l.55,0a1.81,1.81,0,0,0-.23.51,2.42,2.42,0,0,0,.47.82,33.71,33.71,0,0,1-7.72,4.22,7.87,7.87,0,0,1,.77-1.94,69.32,69.32,0,0,1-10.62,7.5,23.18,23.18,0,0,0,1.58-4A4.85,4.85,0,0,1,29,56.44Zm19.14,19-3.9-2.83-3.9,2.83,1.49-4.58L38,68h4.82l1.49-4.59L45.76,68h4.82l-3.9,2.83Zm7.61-11L52.9,62.37,50,64.46l1.1-3.38L48.26,59h3.55l1.09-3.37L54,59h3.55l-2.87,2.09ZM58.72,54l-1.83-1.33L55.06,54l.7-2.16-1.83-1.33h2.26l.7-2.15.7,2.15h2.26L58,51.86Zm4-6L48.12,38.41s-8.64,6-9.71,6.09-3.32-2.06-3.32-2.06l-10.16,5.9c.05-4.48.35-8.86.54-11.31a37.77,37.77,0,0,1,22.65-7.88A37.78,37.78,0,0,1,70.78,37c.19,2.43.49,6.78.53,11.23l-4.48-2.77s-2.06,1.43-2.42,1.79A5.8,5.8,0,0,1,62.7,48Zm10.16,7.33a1.8,1.8,0,0,0-1.37-1,5.53,5.53,0,0,1,.46,2,8.47,8.47,0,0,0-6.37-3.16s3.18-.34,3.87-1.3-3.78-3.14-5-3.18c0,0,2.53-1.14,2.54-1.64a32.9,32.9,0,0,0,3.69,2.23,15.87,15.87,0,0,0-3.11-.87c-.8,0-1.21.37,1.38,1.5a13,13,0,0,1,4.33,3.26,2.61,2.61,0,0,1-1.14,0A5.79,5.79,0,0,1,72.86,55.33Z"/></g><g id="Layer_3" data-name="Layer 3"><path class="cls-2" d="M236.93,48.76A11,11,0,0,0,236,44a5.37,5.37,0,0,0-5.16-3.16c-4.55,0-6.77,4.11-6.77,12.43,0,8,2.17,11.6,6.94,11.6,3.66,0,5.77-2.27,6.6-7l8.38.5c-.5,3.66-1.16,5.49-2.77,7.71-2.72,3.78-7,5.83-12.27,5.83-10,0-16.53-7.49-16.53-19.09,0-5.44,1.44-10,4.32-13.54,3-3.72,7.05-5.5,12.38-5.5s9.16,1.78,11.71,5.27c1.83,2.5,2.55,4.67,3.16,9Z"/><path class="cls-2" d="M248.41,34.39h8v37h-8Z"/><path class="cls-2" d="M267.84,41.71h-8v-8h8Zm0,29.69h-8V44h8Z"/><path class="cls-2" d="M302.19,71.4V56.25c0-3.33-.06-3.88-.39-4.71a3,3,0,0,0-3.05-1.67,3.79,3.79,0,0,0-3.44,1.94,10.19,10.19,0,0,0-.61,4.44V71.4h-8.05V56.25c0-3.16-.11-4-.61-4.88a3.24,3.24,0,0,0-3-1.5,3.69,3.69,0,0,0-3.44,2c-.5,1-.61,1.89-.61,4.38V71.4h-7.82V44h7.6v4.17c1.17-3.06,3.83-4.72,7.71-4.72,3.61,0,5.78,1.33,7.55,4.72,1.72-3.28,4.16-4.72,7.94-4.72a8.89,8.89,0,0,1,6.21,2.27c1.61,1.61,2.06,3.28,2.06,7.88V71.4Z"/><path class="cls-2" d="M320.5,47.48c1.78-2.88,3.61-4,6.77-4,6.27,0,10.21,5.44,10.21,14.1,0,9-4.1,14.37-11,14.37-3.77,0-5.61-1.11-7.94-4.77a8.44,8.44,0,0,0-1.33,2.88,11.52,11.52,0,0,1-.44,1.33h-4.27v-37h8Zm0,13.1c0,3.61,1.61,5.77,4.17,5.77a4.07,4.07,0,0,0,3.77-2.83,16.23,16.23,0,0,0,.78-5.82,22.32,22.32,0,0,0-.62-6,4.09,4.09,0,0,0-3.82-2.83c-2.67,0-4.28,2.5-4.28,6.44Z"/><path class="cls-2" d="M347.47,59.08c-.05.45-.05,1.06-.05,1.28,0,3.55,2.11,5.88,5.27,5.88,2.66,0,4.33-1.5,4.88-4.27l7.33.5a13.29,13.29,0,0,1-3.16,5.77c-2.39,2.55-5.33,3.72-9.33,3.72-8.1,0-13.48-5.61-13.48-14,0-8.54,5.38-14.48,13.2-14.48a12.26,12.26,0,0,1,10.72,5.77c1.61,2.72,2.16,5,2.22,9.82Zm9.66-4.71c-.33-3.94-1.67-5.61-4.61-5.61s-4.66,1.78-5,5.61Z"/><path class="cls-2" d="M366.84,71.4V44h7.38v5.11c1.17-3.88,3-5.72,5.94-5.72.33,0,.89.06,1.44.11v8a4.44,4.44,0,0,0-.77-.06c-4.11,0-6.16,2.94-6.16,8.77V71.4Z"/><path class="cls-2" d="M398.92,52.26c-.78-2.56-2.45-3.72-5.33-3.72-2.5,0-4,.94-4,2.44s1,2.11,4.6,2.55c4.72.67,6.66,1.11,8.33,2.11A7.55,7.55,0,0,1,406,62.47c0,5.83-4.71,9.49-12.32,9.49-4.43,0-7.32-1-9.71-3.28a8.56,8.56,0,0,1-2.66-4.82l6.82-1c.67,2.44,2.61,3.67,6,3.67,2.88,0,4.83-1.11,4.83-2.72,0-1.28-.89-1.89-3.06-2.22a42.12,42.12,0,0,1-9.26-2.06,7.75,7.75,0,0,1-4.28-7.1c0-5.49,4.55-9,11.6-9,5.77,0,8.88,2,10.88,7.16Z"/><path class="cls-1" d="M107.21,48.76a11,11,0,0,0-.94-4.72,5.38,5.38,0,0,0-5.16-3.16c-4.55,0-6.77,4.11-6.77,12.43,0,8,2.16,11.6,6.94,11.6,3.66,0,5.77-2.27,6.6-7l8.38.5c-.5,3.66-1.17,5.49-2.77,7.71-2.72,3.78-7,5.83-12.27,5.83-10,0-16.54-7.49-16.54-19.09,0-5.44,1.45-10,4.33-13.54,3-3.72,7-5.5,12.38-5.5s9.15,1.78,11.71,5.27c1.83,2.5,2.55,4.67,3.16,9Z"/><path class="cls-1" d="M118.7,34.39h8v37h-8Z"/><path class="cls-1" d="M146.12,71.4a14,14,0,0,1-.39-3.55,5.21,5.21,0,0,1,.05-.72C143.12,70.74,141,72,137,72c-5.21,0-8.6-3-8.6-7.66,0-3.88,2.17-6.77,6.11-8.27,2.16-.78,4.71-1.22,10.87-1.72V52.76c0-2.67-1.33-4-4-4s-4.33,1.39-4.66,4L129.25,52c.55-2.95,1.38-4.44,3.1-5.78,2.39-1.83,5.77-2.77,9.77-2.77,4.44,0,8,1.28,9.82,3.44,1.17,1.5,1.5,2.94,1.5,7V66.3c0,3.27,0,3.27.5,5.1Zm-.73-13.09a18.59,18.59,0,0,0-4.88.94c-2.39.78-3.61,2.16-3.61,4.16a3.31,3.31,0,0,0,3.44,3.5c2.89,0,5-2.67,5-6.11Z"/><path class="cls-1" d="M163.71,41.71h-8.05v-8h8.05Zm0,29.69h-8.05V44h8.05Z"/><path class="cls-1" d="M197.06,71.4V56.25c0-3.33-.06-3.88-.39-4.71a3,3,0,0,0-3-1.67,3.79,3.79,0,0,0-3.44,1.94,10.19,10.19,0,0,0-.61,4.44V71.4h-8V56.25c0-3.16-.11-4-.61-4.88a3.24,3.24,0,0,0-3-1.5,3.69,3.69,0,0,0-3.44,2c-.5,1-.61,1.89-.61,4.38V71.4H166V44h7.6v4.17c1.17-3.06,3.83-4.72,7.71-4.72,3.61,0,5.78,1.33,7.55,4.72,1.72-3.28,4.16-4.72,7.94-4.72a8.89,8.89,0,0,1,6.21,2.27c1.61,1.61,2.06,3.28,2.06,7.88V71.4Z"/></g></svg>